<svg viewBox="0 0 64 64" xmlns="http://www.w3.org/2000/svg">
  <circle cx="32" cy="32" r="30" fill="#0E0F13"/>
  <g transform="translate(13.8,16.1) scale(0.13)">
    <path d="M70.0388 0.542036C138.994 0.466776 212.441 -0.880149 281.046 0.977582C280.827 14.6558 280.758 28.336 280.837 42.0157C209.477 44.5441 136.834 40.4615 65.4343 43.2608C50.451 43.8483 44.5936 70.4902 45.6013 84.6495C48.0022 118.351 38.9934 163.788 54.3787 194.404C62.4609 203.965 144.002 200.321 160.727 200.203C199.095 200.155 243.377 199.054 281.288 200.823C281.069 214.494 281.036 228.167 281.19 241.84C261.114 242.881 239.025 242.578 218.833 242.484C164.971 242.235 110.85 244.072 57.0769 241.482C55.0855 241.387 48.6702 240.608 47.1795 240.014C19.9919 229.151 1.68642 214.173 1.09157 182.922C0.304133 140.108 -1.31709 95.7558 2.02907 53.4385C5.01202 15.7038 37.6476 3.30842 70.0388 0.542036Z" fill="white"/>
  </g>
</svg>
